<?xml version="1.0" encoding="UTF-8" standalone="no"?>
<!DOCTYPE svg PUBLIC "-//W3C//DTD SVG 1.1//EN" "http://www.w3.org/Graphics/SVG/1.1/DTD/svg11.dtd">
<svg width="100%" height="100%" viewBox="0 0 100 100" version="1.1" xmlns="http://www.w3.org/2000/svg" xmlns:xlink="http://www.w3.org/1999/xlink" xml:space="preserve" xmlns:serif="http://www.serif.com/" style="fill-rule:evenodd;clip-rule:evenodd;stroke-linejoin:round;stroke-miterlimit:2;">
    <g transform="matrix(0.274522,0,0,0.274522,-45.0686,-80.7095)">
        <path d="M334,402L265,401C265,401 241.733,420.718 232,428C222.043,435.45 215.354,431.247 210,426C205.119,421.217 205.863,409.353 215,400C222.161,392.67 235.515,378.793 240,373C246.684,364.367 253.464,362.099 268,362C282.536,361.901 359.163,362.869 371,363C382.837,363.131 391.274,366.533 404,380C416.726,393.467 447.993,436.258 456,448C468.243,447.853 494.663,446.42 504,447C513.337,447.58 524.501,450.27 525,463C525.499,475.73 512.463,480.352 502,481C491.523,481.649 462.59,483.661 451,484C439.41,484.339 429.498,482.345 424,472C418.502,461.655 401.051,444.358 397,439C387.756,450.723 355,494 355,494C355,494 390.603,527.436 401,538C411.397,548.564 413.859,566.839 395,581C376.141,595.161 331.768,627.378 322,634C312.232,640.622 305.849,637.322 300,631C294.151,624.678 295.861,611.832 303,605C310.139,598.168 355,560 355,560L310,529C310,529 216.529,632.564 202,648C187.926,662.953 178.846,659.098 172,652C165.154,644.902 166.398,634.254 175,624C183.602,613.746 304.01,454.269 334,402ZM440,294C462.077,294 480,311.923 480,334C480,356.077 462.077,374 440,374C417.923,374 400,356.077 400,334C400,311.923 417.923,294 440,294Z" style="fill:white;"/>
    </g>
</svg>
