<?xml version="1.0" encoding="UTF-8" standalone="no"?>
<!DOCTYPE svg PUBLIC "-//W3C//DTD SVG 1.1//EN" "http://www.w3.org/Graphics/SVG/1.1/DTD/svg11.dtd">
<svg width="100%" height="100%" viewBox="0 0 100 100" version="1.1" xmlns="http://www.w3.org/2000/svg" xmlns:xlink="http://www.w3.org/1999/xlink" xml:space="preserve" xmlns:serif="http://www.serif.com/" style="fill-rule:evenodd;clip-rule:evenodd;stroke-linejoin:round;stroke-miterlimit:2;">
    <g transform="matrix(0.27933,0,0,0.27933,-43.7566,-46.3687)">
        <path d="M320,524C320,524 257.361,523.792 221,466C185.006,408.792 216.995,349.55 226,336C230.353,329.45 254.286,288.903 248,264C268.98,272.795 273.017,295.822 272,315C280.991,293.477 299.307,263.918 311,241C322.693,218.082 329.983,183.311 321,166C357.041,180.378 389.923,233.864 389,282C388.172,325.178 383.226,349.472 400,350C417.773,350.559 426.887,317.883 426,289C450.134,318.167 467.518,357.403 467,395C466.482,432.597 439.678,516.657 359,521C384.078,497.986 399.244,470.41 398,447C396.756,423.59 390.599,417.447 381,399C381.076,419.92 372.96,439.067 356,437C339.04,434.933 329.283,420.784 339,386.989C349.67,349.877 343.643,341.186 332,318C332.368,347.525 316.344,364.734 298,386.989C279.656,409.244 266.003,432.684 277,463C287.997,493.316 290.284,503.974 320,524Z" style="fill:white;"/>
    </g>
</svg>
