<?xml version="1.0" encoding="UTF-8" standalone="no"?>
<!DOCTYPE svg PUBLIC "-//W3C//DTD SVG 1.1//EN" "http://www.w3.org/Graphics/SVG/1.1/DTD/svg11.dtd">
<svg width="100%" height="100%" viewBox="0 0 100 100" version="1.1" xmlns="http://www.w3.org/2000/svg" xmlns:xlink="http://www.w3.org/1999/xlink" xml:space="preserve" xmlns:serif="http://www.serif.com/" style="fill-rule:evenodd;clip-rule:evenodd;stroke-linejoin:round;stroke-miterlimit:2;">
    <g transform="matrix(0.275446,0,0,0.275446,-152.463,-19.5567)">
        <path d="M736,71C763.037,118.974 768.281,107.133 826,213C875.603,304.702 859.729,352.111 823,397C788.168,439.57 710.717,448.803 656,407C594.613,359.933 609.707,288.233 634,236C652.638,195.926 694.886,132.9 736,71ZM825.661,327.701C814.442,325.763 796.235,331.946 783.587,336.243C770.94,340.539 753.812,347.47 732.247,340.013C705.636,331.259 694.471,297.917 700.76,283.719C710.504,261.724 733.424,256.497 755.146,272.269C752.489,253.871 736.74,234.702 710.302,236.012C676.27,237.697 646.818,276.927 644.649,309.343C640.636,357.621 680.564,404.855 734.155,404.895C787.747,404.935 827.118,359.017 825.661,327.701Z" style="fill:white;"/>
    </g>
</svg>
